<mxfile host="app.diagrams.net" modified="2023-11-30T14:23:29.535Z" agent="Mozilla/5.0 (Windows NT 10.0; Win64; x64) AppleWebKit/537.36 (KHTML, like Gecko) Chrome/119.0.0.0 Safari/537.36" etag="ZKAlo-CzCZcCUOYtCtw4" version="22.1.5" type="github">
  <diagram name="Page-1" id="xrnMz8NiG75JJwTQfD4i">
    <mxGraphModel dx="1434" dy="758" grid="1" gridSize="10" guides="1" tooltips="1" connect="1" arrows="1" fold="1" page="1" pageScale="1" pageWidth="827" pageHeight="1169" math="0" shadow="0">
      <root>
        <mxCell id="0" />
        <mxCell id="1" parent="0" />
        <mxCell id="qzTjAL--q-t6kTrrrIFN-19" style="edgeStyle=orthogonalEdgeStyle;rounded=0;orthogonalLoop=1;jettySize=auto;html=1;exitX=0.5;exitY=1;exitDx=0;exitDy=0;" edge="1" parent="1" source="qzTjAL--q-t6kTrrrIFN-1">
          <mxGeometry relative="1" as="geometry">
            <mxPoint x="300" y="170" as="targetPoint" />
          </mxGeometry>
        </mxCell>
        <mxCell id="qzTjAL--q-t6kTrrrIFN-1" value="début" style="rounded=1;whiteSpace=wrap;html=1;" vertex="1" parent="1">
          <mxGeometry x="240" y="20" width="120" height="60" as="geometry" />
        </mxCell>
        <mxCell id="qzTjAL--q-t6kTrrrIFN-23" style="edgeStyle=orthogonalEdgeStyle;rounded=0;orthogonalLoop=1;jettySize=auto;html=1;exitX=0.5;exitY=1;exitDx=0;exitDy=0;entryX=0.5;entryY=0;entryDx=0;entryDy=0;" edge="1" parent="1" source="qzTjAL--q-t6kTrrrIFN-2" target="qzTjAL--q-t6kTrrrIFN-16">
          <mxGeometry relative="1" as="geometry" />
        </mxCell>
        <mxCell id="qzTjAL--q-t6kTrrrIFN-2" value="arrêt chauffage" style="rounded=0;whiteSpace=wrap;html=1;" vertex="1" parent="1">
          <mxGeometry y="650" width="120" height="60" as="geometry" />
        </mxCell>
        <mxCell id="qzTjAL--q-t6kTrrrIFN-5" style="edgeStyle=orthogonalEdgeStyle;rounded=0;orthogonalLoop=1;jettySize=auto;html=1;exitX=0.5;exitY=1;exitDx=0;exitDy=0;entryX=0.5;entryY=0;entryDx=0;entryDy=0;" edge="1" parent="1" source="qzTjAL--q-t6kTrrrIFN-3" target="qzTjAL--q-t6kTrrrIFN-2">
          <mxGeometry relative="1" as="geometry" />
        </mxCell>
        <mxCell id="qzTjAL--q-t6kTrrrIFN-8" value="&lt;font style=&quot;font-size: 15px;&quot;&gt;oui&lt;/font&gt;" style="edgeLabel;html=1;align=center;verticalAlign=middle;resizable=0;points=[];" vertex="1" connectable="0" parent="qzTjAL--q-t6kTrrrIFN-5">
          <mxGeometry x="0.0333" y="1" relative="1" as="geometry">
            <mxPoint as="offset" />
          </mxGeometry>
        </mxCell>
        <mxCell id="qzTjAL--q-t6kTrrrIFN-7" value="" style="edgeStyle=orthogonalEdgeStyle;rounded=0;orthogonalLoop=1;jettySize=auto;html=1;entryX=0.5;entryY=0;entryDx=0;entryDy=0;" edge="1" parent="1" source="qzTjAL--q-t6kTrrrIFN-3" target="qzTjAL--q-t6kTrrrIFN-3">
          <mxGeometry relative="1" as="geometry">
            <mxPoint x="260" y="455" as="targetPoint" />
            <Array as="points">
              <mxPoint x="60" y="360" />
              <mxPoint x="200" y="360" />
              <mxPoint x="200" y="550" />
              <mxPoint x="60" y="550" />
            </Array>
          </mxGeometry>
        </mxCell>
        <mxCell id="qzTjAL--q-t6kTrrrIFN-9" value="&lt;font style=&quot;font-size: 15px;&quot;&gt;non&lt;/font&gt;" style="edgeLabel;html=1;align=center;verticalAlign=middle;resizable=0;points=[];" vertex="1" connectable="0" parent="qzTjAL--q-t6kTrrrIFN-7">
          <mxGeometry x="0.3182" y="-1" relative="1" as="geometry">
            <mxPoint as="offset" />
          </mxGeometry>
        </mxCell>
        <mxCell id="qzTjAL--q-t6kTrrrIFN-3" value="température = 60°" style="rhombus;whiteSpace=wrap;html=1;" vertex="1" parent="1">
          <mxGeometry y="380" width="120" height="150" as="geometry" />
        </mxCell>
        <mxCell id="qzTjAL--q-t6kTrrrIFN-20" style="edgeStyle=orthogonalEdgeStyle;rounded=0;orthogonalLoop=1;jettySize=auto;html=1;exitX=0.5;exitY=1;exitDx=0;exitDy=0;entryX=0.5;entryY=0;entryDx=0;entryDy=0;" edge="1" parent="1" source="qzTjAL--q-t6kTrrrIFN-4" target="qzTjAL--q-t6kTrrrIFN-3">
          <mxGeometry relative="1" as="geometry">
            <mxPoint x="120" y="350" as="targetPoint" />
          </mxGeometry>
        </mxCell>
        <mxCell id="qzTjAL--q-t6kTrrrIFN-4" value="Allumage chauffage" style="rounded=0;whiteSpace=wrap;html=1;" vertex="1" parent="1">
          <mxGeometry x="60" y="210" width="120" height="60" as="geometry" />
        </mxCell>
        <mxCell id="qzTjAL--q-t6kTrrrIFN-22" style="edgeStyle=orthogonalEdgeStyle;rounded=0;orthogonalLoop=1;jettySize=auto;html=1;exitX=0.5;exitY=1;exitDx=0;exitDy=0;entryX=0.5;entryY=0;entryDx=0;entryDy=0;" edge="1" parent="1" source="qzTjAL--q-t6kTrrrIFN-10" target="qzTjAL--q-t6kTrrrIFN-16">
          <mxGeometry relative="1" as="geometry" />
        </mxCell>
        <mxCell id="qzTjAL--q-t6kTrrrIFN-10" value="arrêt remplissage eau" style="rounded=0;whiteSpace=wrap;html=1;" vertex="1" parent="1">
          <mxGeometry x="360" y="650" width="120" height="60" as="geometry" />
        </mxCell>
        <mxCell id="qzTjAL--q-t6kTrrrIFN-11" style="edgeStyle=orthogonalEdgeStyle;rounded=0;orthogonalLoop=1;jettySize=auto;html=1;exitX=0.5;exitY=1;exitDx=0;exitDy=0;entryX=0.5;entryY=0;entryDx=0;entryDy=0;" edge="1" parent="1" source="qzTjAL--q-t6kTrrrIFN-15" target="qzTjAL--q-t6kTrrrIFN-10">
          <mxGeometry relative="1" as="geometry" />
        </mxCell>
        <mxCell id="qzTjAL--q-t6kTrrrIFN-12" value="&lt;font style=&quot;font-size: 15px;&quot;&gt;oui&lt;/font&gt;" style="edgeLabel;html=1;align=center;verticalAlign=middle;resizable=0;points=[];" vertex="1" connectable="0" parent="qzTjAL--q-t6kTrrrIFN-11">
          <mxGeometry x="0.0333" y="1" relative="1" as="geometry">
            <mxPoint as="offset" />
          </mxGeometry>
        </mxCell>
        <mxCell id="qzTjAL--q-t6kTrrrIFN-13" value="" style="edgeStyle=orthogonalEdgeStyle;rounded=0;orthogonalLoop=1;jettySize=auto;html=1;entryX=0.5;entryY=0;entryDx=0;entryDy=0;" edge="1" parent="1" source="qzTjAL--q-t6kTrrrIFN-15" target="qzTjAL--q-t6kTrrrIFN-15">
          <mxGeometry relative="1" as="geometry">
            <mxPoint x="620" y="455" as="targetPoint" />
            <Array as="points">
              <mxPoint x="420" y="360" />
              <mxPoint x="560" y="360" />
              <mxPoint x="560" y="550" />
              <mxPoint x="420" y="550" />
            </Array>
          </mxGeometry>
        </mxCell>
        <mxCell id="qzTjAL--q-t6kTrrrIFN-14" value="&lt;font style=&quot;font-size: 15px;&quot;&gt;non&lt;/font&gt;" style="edgeLabel;html=1;align=center;verticalAlign=middle;resizable=0;points=[];" vertex="1" connectable="0" parent="qzTjAL--q-t6kTrrrIFN-13">
          <mxGeometry x="0.3182" y="-1" relative="1" as="geometry">
            <mxPoint as="offset" />
          </mxGeometry>
        </mxCell>
        <mxCell id="qzTjAL--q-t6kTrrrIFN-15" value="Niveau eau = 100L" style="rhombus;whiteSpace=wrap;html=1;" vertex="1" parent="1">
          <mxGeometry x="360" y="380" width="120" height="150" as="geometry" />
        </mxCell>
        <mxCell id="qzTjAL--q-t6kTrrrIFN-16" value="fin" style="rounded=1;whiteSpace=wrap;html=1;" vertex="1" parent="1">
          <mxGeometry x="240" y="840" width="120" height="60" as="geometry" />
        </mxCell>
        <mxCell id="qzTjAL--q-t6kTrrrIFN-21" style="edgeStyle=orthogonalEdgeStyle;rounded=0;orthogonalLoop=1;jettySize=auto;html=1;exitX=0.5;exitY=1;exitDx=0;exitDy=0;entryX=0.5;entryY=0;entryDx=0;entryDy=0;" edge="1" parent="1" source="qzTjAL--q-t6kTrrrIFN-17" target="qzTjAL--q-t6kTrrrIFN-15">
          <mxGeometry relative="1" as="geometry" />
        </mxCell>
        <mxCell id="qzTjAL--q-t6kTrrrIFN-17" value="Allumage eau" style="rounded=0;whiteSpace=wrap;html=1;" vertex="1" parent="1">
          <mxGeometry x="420" y="210" width="120" height="60" as="geometry" />
        </mxCell>
        <mxCell id="qzTjAL--q-t6kTrrrIFN-18" style="edgeStyle=orthogonalEdgeStyle;rounded=0;orthogonalLoop=1;jettySize=auto;html=1;exitX=0.5;exitY=0;exitDx=0;exitDy=0;entryX=0.592;entryY=-0.017;entryDx=0;entryDy=0;entryPerimeter=0;" edge="1" parent="1" source="qzTjAL--q-t6kTrrrIFN-4" target="qzTjAL--q-t6kTrrrIFN-17">
          <mxGeometry relative="1" as="geometry">
            <Array as="points">
              <mxPoint x="120" y="170" />
              <mxPoint x="491" y="170" />
            </Array>
          </mxGeometry>
        </mxCell>
      </root>
    </mxGraphModel>
  </diagram>
</mxfile>
